<svg width="2046" height="2566" viewBox="0 0 2046 2566" fill="none" xmlns="http://www.w3.org/2000/svg">
<path id="linea-1" d="M1391.63 2510.98L1303.87 2423.22V2123.46L875.16 1694.75V1238.15L775.641 1138.62V943.908L851.05 868.487H946.4V794.107H1160.84L1202.79 752.167H1284.08"  stroke-width="41.6699" stroke-miterlimit="1.5" stroke-linecap="round" stroke-linejoin="round"/>
<path class="stroke-white" id="linea-2" d="M1817.35 1626.84H1649.89L1411.1 1388.05H1374.32L1037.41 1724.96H775.641V1148.88"  stroke-width="41.6699" stroke-miterlimit="1.5" stroke-linecap="round" stroke-linejoin="round"/>
<path class="stroke-white" id="linea-3" d="M803.841 2544.85L858.661 2490.02V2269.76L957 2171.42V1957.21L882.291 1882.5V1724.05L506.242 1348"  stroke-width="41.6699" stroke-miterlimit="1.5" stroke-linecap="round" stroke-linejoin="round"/>
<path class="stroke-white" id="linea-4" d="M1284.27 753.587H1429.38L1485.43 809.627V990.318L1182 1293.76L1247.21 1358.96V1509H974.97L872.271 1406.29H564.611"  stroke-width="41.6699" stroke-miterlimit="1.5" stroke-linecap="round" stroke-linejoin="round"/>
<path class="stroke-white" id="linea-5" d="M1867.2 1107.04L1594.81 1379.43H1119.58L780.191 1718.82V1786.96L865.39 1872.16L566.441 2171.12H506.241L428.262 2093.15V1786.59"  stroke-width="41.6699" stroke-miterlimit="1.5" stroke-linecap="round" stroke-linejoin="round"/>
<path class="stroke-white"id="linea-6" fill-rule="evenodd" clip-rule="evenodd" d="M1009.94 1145.44L1359.55 1495.05V1839.38L1025.56 2173.38H706.701L500.282 1966.95V1801.56L642.541 1659.3V1579.08L536.802 1473.35V1373.18L507.332 1343.71V1225.7L589.802 1143.23L1009.94 1145.44Z"  stroke-width="41.6699" stroke-miterlimit="1.5" stroke-linecap="round" stroke-linejoin="round"/>
<path class="stroke-white" id="linea-7" d="M628.731 537.925V1240.98L675.751 1288H1485.43L1683.97 1486.53H1870.8L2024.59 1640.33"  stroke-width="41.6699" stroke-miterlimit="1.5" stroke-linecap="round" stroke-linejoin="round"/>
<path class="stroke-white" id="linea-8" d="M1887.43 675.08V786.997L1765.75 908.667H1180.62L965.74 1123.55"  stroke-width="41.6699" stroke-miterlimit="1.5" stroke-linecap="round" stroke-linejoin="round"/>
<path class="stroke-white" id="linea-9" d="M749.321 534.664V675.08L959.33 885.097H1040.48L1162.02 1006.64V1590.77L1973.78 2402.52"  stroke-width="41.6699" stroke-miterlimit="1.5" stroke-linecap="round" stroke-linejoin="round"/>
<path class="stroke-white" id="linea-10" d="M21 2423.17V2256.75L255.752 2022V1961.37L706.411 1510.71H957V619.303L929.561 591.868V449.79L1085.35 294.001H1147.73L1420.73 21"  stroke-width="41.6699" stroke-miterlimit="1.5" stroke-linecap="round" stroke-linejoin="round"/>
</svg>
